<mxfile host="app.diagrams.net" modified="2023-07-14T03:52:05.829Z" agent="Mozilla/5.0 (Windows NT 10.0; Win64; x64) AppleWebKit/537.36 (KHTML, like Gecko) Chrome/114.0.0.0 Safari/537.36 Edg/114.0.1823.79" etag="W-SSoXG1BnWPPkcRujjL" version="21.6.2" type="github">
  <diagram name="Page-1" id="0783ab3e-0a74-02c8-0abd-f7b4e66b4bec">
    <mxGraphModel dx="1793" dy="995" grid="1" gridSize="10" guides="1" tooltips="1" connect="1" arrows="1" fold="1" page="1" pageScale="1" pageWidth="850" pageHeight="1100" background="none" math="0" shadow="0">
      <root>
        <mxCell id="0" />
        <mxCell id="1" parent="0" />
        <mxCell id="1c1d494c118603dd-1" value="Activity Diagram Profile" style="swimlane;html=1;childLayout=stackLayout;startSize=20;rounded=0;shadow=0;comic=0;labelBackgroundColor=none;strokeWidth=1;fontFamily=Verdana;fontSize=12;align=center;" parent="1" vertex="1">
          <mxGeometry x="40" y="20" width="820" height="620" as="geometry" />
        </mxCell>
        <mxCell id="1c1d494c118603dd-2" value="Pelanggan" style="swimlane;html=1;startSize=20;" parent="1c1d494c118603dd-1" vertex="1">
          <mxGeometry y="20" width="220" height="600" as="geometry" />
        </mxCell>
        <mxCell id="Wxv5RrPrsyw_u0zP_94N-7" style="edgeStyle=orthogonalEdgeStyle;rounded=0;orthogonalLoop=1;jettySize=auto;html=1;entryX=0.5;entryY=0;entryDx=0;entryDy=0;" edge="1" parent="1c1d494c118603dd-2" source="60571a20871a0731-4" target="Wxv5RrPrsyw_u0zP_94N-6">
          <mxGeometry relative="1" as="geometry" />
        </mxCell>
        <mxCell id="60571a20871a0731-4" value="" style="ellipse;whiteSpace=wrap;html=1;rounded=0;shadow=0;comic=0;labelBackgroundColor=none;strokeWidth=1;fillColor=#000000;fontFamily=Verdana;fontSize=12;align=center;" parent="1c1d494c118603dd-2" vertex="1">
          <mxGeometry x="90" y="40" width="40" height="40" as="geometry" />
        </mxCell>
        <mxCell id="Wxv5RrPrsyw_u0zP_94N-9" style="edgeStyle=orthogonalEdgeStyle;rounded=0;orthogonalLoop=1;jettySize=auto;html=1;entryX=0.5;entryY=0;entryDx=0;entryDy=0;" edge="1" parent="1c1d494c118603dd-2" source="Wxv5RrPrsyw_u0zP_94N-6" target="Wxv5RrPrsyw_u0zP_94N-8">
          <mxGeometry relative="1" as="geometry" />
        </mxCell>
        <mxCell id="Wxv5RrPrsyw_u0zP_94N-6" value="Login" style="rounded=1;whiteSpace=wrap;html=1;strokeWidth=2;fillStyle=solid;arcSize=50;" vertex="1" parent="1c1d494c118603dd-2">
          <mxGeometry x="25" y="110" width="170" height="30" as="geometry" />
        </mxCell>
        <mxCell id="Wxv5RrPrsyw_u0zP_94N-8" value="Memilih Menu Profile" style="rounded=1;whiteSpace=wrap;html=1;strokeWidth=2;fillStyle=solid;arcSize=50;" vertex="1" parent="1c1d494c118603dd-2">
          <mxGeometry x="25" y="170" width="170" height="30" as="geometry" />
        </mxCell>
        <mxCell id="Wxv5RrPrsyw_u0zP_94N-32" style="edgeStyle=orthogonalEdgeStyle;rounded=0;orthogonalLoop=1;jettySize=auto;html=1;" edge="1" parent="1c1d494c118603dd-2" source="Wxv5RrPrsyw_u0zP_94N-28" target="Wxv5RrPrsyw_u0zP_94N-31">
          <mxGeometry relative="1" as="geometry" />
        </mxCell>
        <mxCell id="Wxv5RrPrsyw_u0zP_94N-28" value="Action" style="rounded=1;whiteSpace=wrap;html=1;strokeWidth=2;fillStyle=solid;arcSize=50;" vertex="1" parent="1c1d494c118603dd-2">
          <mxGeometry x="25" y="220" width="170" height="30" as="geometry" />
        </mxCell>
        <mxCell id="Wxv5RrPrsyw_u0zP_94N-58" style="edgeStyle=orthogonalEdgeStyle;rounded=0;orthogonalLoop=1;jettySize=auto;html=1;" edge="1" parent="1c1d494c118603dd-2" source="Wxv5RrPrsyw_u0zP_94N-31" target="Wxv5RrPrsyw_u0zP_94N-57">
          <mxGeometry relative="1" as="geometry">
            <Array as="points">
              <mxPoint x="62" y="300" />
              <mxPoint x="62" y="300" />
            </Array>
          </mxGeometry>
        </mxCell>
        <mxCell id="Wxv5RrPrsyw_u0zP_94N-61" style="edgeStyle=orthogonalEdgeStyle;rounded=0;orthogonalLoop=1;jettySize=auto;html=1;" edge="1" parent="1c1d494c118603dd-2" source="Wxv5RrPrsyw_u0zP_94N-31" target="Wxv5RrPrsyw_u0zP_94N-34">
          <mxGeometry relative="1" as="geometry">
            <Array as="points">
              <mxPoint x="167" y="300" />
              <mxPoint x="167" y="300" />
            </Array>
          </mxGeometry>
        </mxCell>
        <mxCell id="Wxv5RrPrsyw_u0zP_94N-31" value="" style="line;strokeWidth=4;html=1;perimeter=backbonePerimeter;points=[];outlineConnect=0;" vertex="1" parent="1c1d494c118603dd-2">
          <mxGeometry x="30" y="280" width="160" height="10" as="geometry" />
        </mxCell>
        <mxCell id="Wxv5RrPrsyw_u0zP_94N-34" value="Update foto" style="rounded=1;whiteSpace=wrap;html=1;strokeWidth=2;fillStyle=solid;arcSize=50;" vertex="1" parent="1c1d494c118603dd-2">
          <mxGeometry x="117" y="330" width="100" height="17.65" as="geometry" />
        </mxCell>
        <mxCell id="Wxv5RrPrsyw_u0zP_94N-57" value="Update Informasi" style="rounded=1;whiteSpace=wrap;html=1;strokeWidth=2;fillStyle=solid;arcSize=50;" vertex="1" parent="1c1d494c118603dd-2">
          <mxGeometry x="12" y="330" width="100" height="17.65" as="geometry" />
        </mxCell>
        <mxCell id="1c1d494c118603dd-3" value="Controller" style="swimlane;html=1;startSize=20;" parent="1c1d494c118603dd-1" vertex="1">
          <mxGeometry x="220" y="20" width="210" height="600" as="geometry" />
        </mxCell>
        <mxCell id="Wxv5RrPrsyw_u0zP_94N-10" value="Request Halaman Profile" style="rounded=1;whiteSpace=wrap;html=1;strokeWidth=2;fillStyle=solid;arcSize=50;" vertex="1" parent="1c1d494c118603dd-3">
          <mxGeometry x="20" y="170" width="170" height="30" as="geometry" />
        </mxCell>
        <mxCell id="Wxv5RrPrsyw_u0zP_94N-66" style="edgeStyle=orthogonalEdgeStyle;rounded=0;orthogonalLoop=1;jettySize=auto;html=1;entryX=0.5;entryY=0;entryDx=0;entryDy=0;" edge="1" parent="1c1d494c118603dd-3" source="Wxv5RrPrsyw_u0zP_94N-62" target="Wxv5RrPrsyw_u0zP_94N-65">
          <mxGeometry relative="1" as="geometry" />
        </mxCell>
        <mxCell id="Wxv5RrPrsyw_u0zP_94N-62" value="Validasi tipe file foto atau tidak" style="rounded=1;whiteSpace=wrap;html=1;strokeWidth=2;fillStyle=solid;arcSize=50;" vertex="1" parent="1c1d494c118603dd-3">
          <mxGeometry x="30" y="320" width="170" height="30" as="geometry" />
        </mxCell>
        <mxCell id="Wxv5RrPrsyw_u0zP_94N-65" value="" style="rhombus;whiteSpace=wrap;html=1;" vertex="1" parent="1c1d494c118603dd-3">
          <mxGeometry x="95" y="370" width="40" height="40" as="geometry" />
        </mxCell>
        <mxCell id="Wxv5RrPrsyw_u0zP_94N-78" style="edgeStyle=orthogonalEdgeStyle;rounded=0;orthogonalLoop=1;jettySize=auto;html=1;entryX=0.5;entryY=0;entryDx=0;entryDy=0;" edge="1" parent="1c1d494c118603dd-3" source="Wxv5RrPrsyw_u0zP_94N-74" target="Wxv5RrPrsyw_u0zP_94N-76">
          <mxGeometry relative="1" as="geometry" />
        </mxCell>
        <mxCell id="Wxv5RrPrsyw_u0zP_94N-74" value="Validasi request" style="rounded=1;whiteSpace=wrap;html=1;strokeWidth=2;fillStyle=solid;arcSize=50;" vertex="1" parent="1c1d494c118603dd-3">
          <mxGeometry x="30" y="460" width="170" height="30" as="geometry" />
        </mxCell>
        <mxCell id="Wxv5RrPrsyw_u0zP_94N-76" value="" style="rhombus;whiteSpace=wrap;html=1;" vertex="1" parent="1c1d494c118603dd-3">
          <mxGeometry x="95" y="520" width="40" height="40" as="geometry" />
        </mxCell>
        <mxCell id="1c1d494c118603dd-4" value="Model" style="swimlane;html=1;startSize=20;" parent="1c1d494c118603dd-1" vertex="1">
          <mxGeometry x="430" y="20" width="200" height="600" as="geometry" />
        </mxCell>
        <mxCell id="Wxv5RrPrsyw_u0zP_94N-23" value="Get Data User Yang Login" style="rounded=1;whiteSpace=wrap;html=1;strokeWidth=2;fillStyle=solid;arcSize=50;" vertex="1" parent="1c1d494c118603dd-4">
          <mxGeometry x="20" y="170" width="170" height="30" as="geometry" />
        </mxCell>
        <mxCell id="Wxv5RrPrsyw_u0zP_94N-67" value="Update user" style="rounded=1;whiteSpace=wrap;html=1;strokeWidth=2;fillStyle=solid;arcSize=50;" vertex="1" parent="1c1d494c118603dd-4">
          <mxGeometry x="20" y="375" width="170" height="30" as="geometry" />
        </mxCell>
        <mxCell id="Wxv5RrPrsyw_u0zP_94N-25" style="edgeStyle=orthogonalEdgeStyle;rounded=0;orthogonalLoop=1;jettySize=auto;html=1;" edge="1" parent="1c1d494c118603dd-1" source="Wxv5RrPrsyw_u0zP_94N-8" target="Wxv5RrPrsyw_u0zP_94N-10">
          <mxGeometry relative="1" as="geometry" />
        </mxCell>
        <mxCell id="Wxv5RrPrsyw_u0zP_94N-26" style="edgeStyle=orthogonalEdgeStyle;rounded=0;orthogonalLoop=1;jettySize=auto;html=1;" edge="1" parent="1c1d494c118603dd-1" source="Wxv5RrPrsyw_u0zP_94N-10" target="Wxv5RrPrsyw_u0zP_94N-23">
          <mxGeometry relative="1" as="geometry" />
        </mxCell>
        <mxCell id="Wxv5RrPrsyw_u0zP_94N-27" style="edgeStyle=orthogonalEdgeStyle;rounded=0;orthogonalLoop=1;jettySize=auto;html=1;" edge="1" parent="1c1d494c118603dd-1" source="Wxv5RrPrsyw_u0zP_94N-23" target="Wxv5RrPrsyw_u0zP_94N-24">
          <mxGeometry relative="1" as="geometry" />
        </mxCell>
        <mxCell id="Wxv5RrPrsyw_u0zP_94N-29" style="edgeStyle=orthogonalEdgeStyle;rounded=0;orthogonalLoop=1;jettySize=auto;html=1;entryX=1;entryY=0.5;entryDx=0;entryDy=0;exitX=0.5;exitY=1;exitDx=0;exitDy=0;" edge="1" parent="1c1d494c118603dd-1" source="Wxv5RrPrsyw_u0zP_94N-24" target="Wxv5RrPrsyw_u0zP_94N-28">
          <mxGeometry relative="1" as="geometry" />
        </mxCell>
        <mxCell id="Wxv5RrPrsyw_u0zP_94N-68" style="edgeStyle=orthogonalEdgeStyle;rounded=0;orthogonalLoop=1;jettySize=auto;html=1;entryX=0;entryY=0.5;entryDx=0;entryDy=0;" edge="1" parent="1c1d494c118603dd-1" source="Wxv5RrPrsyw_u0zP_94N-65" target="Wxv5RrPrsyw_u0zP_94N-67">
          <mxGeometry relative="1" as="geometry" />
        </mxCell>
        <mxCell id="Wxv5RrPrsyw_u0zP_94N-71" value="Ya" style="edgeLabel;html=1;align=center;verticalAlign=middle;resizable=0;points=[];" vertex="1" connectable="0" parent="Wxv5RrPrsyw_u0zP_94N-68">
          <mxGeometry x="-0.2671" y="-2" relative="1" as="geometry">
            <mxPoint as="offset" />
          </mxGeometry>
        </mxCell>
        <mxCell id="Wxv5RrPrsyw_u0zP_94N-69" style="edgeStyle=orthogonalEdgeStyle;rounded=0;orthogonalLoop=1;jettySize=auto;html=1;" edge="1" parent="1c1d494c118603dd-1" source="Wxv5RrPrsyw_u0zP_94N-67" target="Wxv5RrPrsyw_u0zP_94N-64">
          <mxGeometry relative="1" as="geometry" />
        </mxCell>
        <mxCell id="Wxv5RrPrsyw_u0zP_94N-72" style="edgeStyle=orthogonalEdgeStyle;rounded=0;orthogonalLoop=1;jettySize=auto;html=1;entryX=0.5;entryY=1;entryDx=0;entryDy=0;exitX=0.5;exitY=1;exitDx=0;exitDy=0;" edge="1" parent="1c1d494c118603dd-1" source="Wxv5RrPrsyw_u0zP_94N-65" target="Wxv5RrPrsyw_u0zP_94N-64">
          <mxGeometry relative="1" as="geometry" />
        </mxCell>
        <mxCell id="Wxv5RrPrsyw_u0zP_94N-73" value="Tidak" style="edgeLabel;html=1;align=center;verticalAlign=middle;resizable=0;points=[];" vertex="1" connectable="0" parent="Wxv5RrPrsyw_u0zP_94N-72">
          <mxGeometry x="-0.6453" y="-1" relative="1" as="geometry">
            <mxPoint as="offset" />
          </mxGeometry>
        </mxCell>
        <mxCell id="Wxv5RrPrsyw_u0zP_94N-75" style="edgeStyle=orthogonalEdgeStyle;rounded=0;orthogonalLoop=1;jettySize=auto;html=1;exitX=0.5;exitY=1;exitDx=0;exitDy=0;entryX=0;entryY=0.5;entryDx=0;entryDy=0;" edge="1" parent="1c1d494c118603dd-1" source="Wxv5RrPrsyw_u0zP_94N-57" target="Wxv5RrPrsyw_u0zP_94N-74">
          <mxGeometry relative="1" as="geometry">
            <mxPoint x="270" y="470" as="targetPoint" />
          </mxGeometry>
        </mxCell>
        <mxCell id="Wxv5RrPrsyw_u0zP_94N-79" style="edgeStyle=orthogonalEdgeStyle;rounded=0;orthogonalLoop=1;jettySize=auto;html=1;entryX=0.5;entryY=1;entryDx=0;entryDy=0;" edge="1" parent="1c1d494c118603dd-1" source="Wxv5RrPrsyw_u0zP_94N-76" target="Wxv5RrPrsyw_u0zP_94N-67">
          <mxGeometry relative="1" as="geometry" />
        </mxCell>
        <mxCell id="Wxv5RrPrsyw_u0zP_94N-81" value="Ya" style="edgeLabel;html=1;align=center;verticalAlign=middle;resizable=0;points=[];" vertex="1" connectable="0" parent="Wxv5RrPrsyw_u0zP_94N-79">
          <mxGeometry x="-0.6991" y="-2" relative="1" as="geometry">
            <mxPoint as="offset" />
          </mxGeometry>
        </mxCell>
        <mxCell id="Wxv5RrPrsyw_u0zP_94N-80" style="edgeStyle=orthogonalEdgeStyle;rounded=0;orthogonalLoop=1;jettySize=auto;html=1;entryX=0.5;entryY=1;entryDx=0;entryDy=0;exitX=0.5;exitY=1;exitDx=0;exitDy=0;" edge="1" parent="1c1d494c118603dd-1" source="Wxv5RrPrsyw_u0zP_94N-76" target="Wxv5RrPrsyw_u0zP_94N-64">
          <mxGeometry relative="1" as="geometry" />
        </mxCell>
        <mxCell id="Wxv5RrPrsyw_u0zP_94N-82" value="Tidak" style="edgeLabel;html=1;align=center;verticalAlign=middle;resizable=0;points=[];" vertex="1" connectable="0" parent="Wxv5RrPrsyw_u0zP_94N-80">
          <mxGeometry x="-0.7286" relative="1" as="geometry">
            <mxPoint as="offset" />
          </mxGeometry>
        </mxCell>
        <mxCell id="Wxv5RrPrsyw_u0zP_94N-2" value="View" style="swimlane;html=1;startSize=20;" vertex="1" parent="1c1d494c118603dd-1">
          <mxGeometry x="630" y="20" width="190" height="600" as="geometry" />
        </mxCell>
        <mxCell id="Wxv5RrPrsyw_u0zP_94N-86" style="edgeStyle=orthogonalEdgeStyle;rounded=0;orthogonalLoop=1;jettySize=auto;html=1;entryX=0.5;entryY=1;entryDx=0;entryDy=0;" edge="1" parent="Wxv5RrPrsyw_u0zP_94N-2" source="Wxv5RrPrsyw_u0zP_94N-24" target="60571a20871a0731-5">
          <mxGeometry relative="1" as="geometry" />
        </mxCell>
        <mxCell id="Wxv5RrPrsyw_u0zP_94N-24" value="Halaman Profile" style="rounded=1;whiteSpace=wrap;html=1;strokeWidth=2;fillStyle=solid;arcSize=50;" vertex="1" parent="Wxv5RrPrsyw_u0zP_94N-2">
          <mxGeometry x="10" y="170" width="170" height="30" as="geometry" />
        </mxCell>
        <mxCell id="Wxv5RrPrsyw_u0zP_94N-70" style="edgeStyle=orthogonalEdgeStyle;rounded=0;orthogonalLoop=1;jettySize=auto;html=1;" edge="1" parent="Wxv5RrPrsyw_u0zP_94N-2" source="Wxv5RrPrsyw_u0zP_94N-64" target="Wxv5RrPrsyw_u0zP_94N-24">
          <mxGeometry relative="1" as="geometry" />
        </mxCell>
        <mxCell id="Wxv5RrPrsyw_u0zP_94N-64" value="Menampilkan Pesan" style="rounded=1;whiteSpace=wrap;html=1;strokeWidth=2;fillStyle=solid;arcSize=50;" vertex="1" parent="Wxv5RrPrsyw_u0zP_94N-2">
          <mxGeometry x="10" y="375" width="170" height="30" as="geometry" />
        </mxCell>
        <mxCell id="60571a20871a0731-5" value="" style="shape=mxgraph.bpmn.shape;html=1;verticalLabelPosition=bottom;labelBackgroundColor=#ffffff;verticalAlign=top;perimeter=ellipsePerimeter;outline=end;symbol=terminate;rounded=0;shadow=0;comic=0;strokeWidth=1;fontFamily=Verdana;fontSize=12;align=center;" parent="Wxv5RrPrsyw_u0zP_94N-2" vertex="1">
          <mxGeometry x="75" y="90" width="40" height="40" as="geometry" />
        </mxCell>
        <mxCell id="Wxv5RrPrsyw_u0zP_94N-87" value="End" style="text;html=1;align=center;verticalAlign=middle;resizable=0;points=[];autosize=1;strokeColor=none;fillColor=none;" vertex="1" parent="Wxv5RrPrsyw_u0zP_94N-2">
          <mxGeometry x="115" y="95" width="40" height="30" as="geometry" />
        </mxCell>
        <mxCell id="Wxv5RrPrsyw_u0zP_94N-5" value="Start" style="text;html=1;align=center;verticalAlign=middle;resizable=0;points=[];autosize=1;strokeColor=none;fillColor=none;" vertex="1" parent="1">
          <mxGeometry x="185" y="78" width="50" height="30" as="geometry" />
        </mxCell>
      </root>
    </mxGraphModel>
  </diagram>
</mxfile>
